<svg width="544" height="502" viewBox="0 0 544 502" fill="none" xmlns="http://www.w3.org/2000/svg">
<g id="paper">
<g clip-path="url(#clip0)">
<path id="Vector" d="M32.9716 40.0918C24.2301 40.1017 15.8494 43.5739 9.66815 49.7467C3.48692 55.9195 0.00994272 64.2887 0 73.0182V452.35C0.0100284 461.08 3.48705 469.449 9.66828 475.621C15.8495 481.794 24.2301 485.266 32.9716 485.276H311.621C320.363 485.266 328.743 481.794 334.925 475.621C341.106 469.449 344.583 461.08 344.593 452.35V73.0182C344.583 64.2887 341.106 55.9195 334.925 49.7468C328.743 43.5741 320.363 40.1018 311.621 40.0918H32.9716Z" fill="#3F3D56"/>
<path id="Vector_2" d="M327.447 63.4785H17.146V461.889H327.447V63.4785Z" fill="white"/>
<path id="Vector_3" d="M286.882 134.892H57.7109V149.926H286.882V134.892Z" fill="#6C63FF"/>
<path id="Vector_4" d="M286.882 174.983H57.7109V190.018H286.882V174.983Z" fill="#6C63FF"/>
<path id="Vector_5" d="M286.882 215.075H57.7109V230.109H286.882V215.075Z" fill="#6C63FF"/>
<path id="Vector_6" d="M286.882 255.167H57.7109V270.201H286.882V255.167Z" fill="#6C63FF"/>
<path id="Vector_7" d="M286.882 295.258H57.7109V310.293H286.882V295.258Z" fill="#6C63FF"/>
<path id="Vector_8" d="M286.882 335.35H57.7109V350.384H286.882V335.35Z" fill="#6C63FF"/>
<path id="Vector_9" d="M286.882 375.442H57.7109V390.476H286.882V375.442Z" fill="#6C63FF"/>
<g id="paper_2">
<path id="Vector_10" d="M60.6428 352.723L291.65 353.301L292.248 56.6723L61.2409 56.0942L60.6428 352.723Z" fill="#E6E6E6"/>
<path id="Vector_11" d="M90.949 299.629L261.558 300.056L261.581 288.862L90.9716 288.435L90.949 299.629Z" fill="#6C63FF"/>
<path id="Vector_12" d="M91.0093 269.78L261.618 270.207L261.641 259.013L91.0319 258.586L91.0093 269.78Z" fill="#6C63FF"/>
<path id="Vector_13" d="M91.0697 239.93L261.679 240.357L261.701 229.164L91.0922 228.737L91.0697 239.93Z" fill="#6C63FF"/>
<path id="Vector_14" d="M91.1297 210.081L261.739 210.508L261.761 199.314L91.1523 198.887L91.1297 210.081Z" fill="#6C63FF"/>
<path id="Vector_15" d="M91.1926 180.232L261.801 180.659L261.823 169.465L91.2152 169.038L91.1926 180.232Z" fill="#6C63FF"/>
<path id="Vector_16" d="M91.2501 150.382L261.859 150.809L261.882 139.615L91.2726 139.188L91.2501 150.382Z" fill="#6C63FF"/>
<path id="Vector_17" d="M91.3104 120.533L261.919 120.959L261.942 109.766L91.3329 109.339L91.3104 120.533Z" fill="#6C63FF"/>
</g>
<path id="Vector_18" d="M450.955 357.391L386.655 369.142L401.784 451.699L466.084 439.948L450.955 357.391Z" fill="#E6E6E6"/>
<path id="Vector_19" d="M445.261 373.725L397.772 382.404L398.343 385.519L445.832 376.84L445.261 373.725Z" fill="white"/>
<path id="Vector_20" d="M446.783 382.033L399.295 390.711L399.866 393.827L447.354 385.148L446.783 382.033Z" fill="white"/>
<path id="Vector_21" d="M448.305 390.34L400.817 399.019L401.388 402.134L448.876 393.456L448.305 390.34Z" fill="white"/>
<path id="Vector_22" d="M449.828 398.648L402.34 407.327L402.911 410.442L450.399 401.763L449.828 398.648Z" fill="white"/>
<path id="Vector_23" d="M451.35 406.956L403.862 415.634L404.433 418.75L451.921 410.071L451.35 406.956Z" fill="white"/>
<path id="Vector_24" d="M452.873 415.263L405.385 423.942L405.955 427.057L453.444 418.379L452.873 415.263Z" fill="white"/>
<path id="Vector_25" d="M454.395 423.571L406.907 432.25L407.478 435.365L454.966 426.687L454.395 423.571Z" fill="white"/>
<path id="Vector_26" d="M229.75 20.8811H202.406V15.2909C202.406 11.2355 200.793 7.34618 197.922 4.47859C195.05 1.611 191.156 0 187.095 0H157.498C153.437 3.64518e-06 149.543 1.611 146.671 4.47859C143.8 7.34618 142.186 11.2355 142.186 15.2909V20.8811H114.842C112.832 20.8811 110.84 21.2766 108.983 22.045C107.125 22.8135 105.437 23.9398 104.015 25.3597C102.593 26.7795 101.466 28.4652 100.696 30.3204C99.9266 32.1755 99.5305 34.1639 99.5305 36.1719V78.5128H245.062V36.1719C245.062 34.1639 244.666 32.1755 243.897 30.3204C243.127 28.4652 241.999 26.7795 240.578 25.3597C239.156 23.9398 237.468 22.8135 235.61 22.045C233.752 21.2766 231.761 20.8811 229.75 20.8811Z" fill="#3F3D56"/>
<path id="Vector_27" d="M162.481 432.917C167.002 429.827 171.648 426.614 177.017 425.209C181.915 423.928 187.54 424.267 191.414 427.849C194.541 430.739 195.861 435.182 193.545 438.985C193.048 439.852 192.372 440.605 191.563 441.193C190.754 441.781 189.829 442.191 188.85 442.396C187.903 442.521 186.941 442.404 186.052 442.057C185.163 441.711 184.376 441.145 183.765 440.412C182.55 439.072 181.824 437.091 182.469 435.324C183.148 433.466 184.964 432.33 186.747 431.696C188.822 431.04 190.96 430.598 193.126 430.38L201.998 429.167L238.311 424.203L278.75 418.674C279.07 418.584 279.341 418.372 279.505 418.083C279.669 417.795 279.713 417.454 279.627 417.133C279.531 416.817 279.318 416.55 279.03 416.388C278.743 416.225 278.404 416.178 278.083 416.258L197.617 427.259C194.706 427.657 191.755 427.941 188.875 428.526C186.607 428.892 184.457 429.784 182.597 431.13C178.743 434.177 179.018 439.568 182.565 442.756C186.156 445.983 191.363 445.428 194.514 441.863C196.107 440.059 197.053 437.776 197.201 435.375C197.35 432.975 196.694 430.593 195.335 428.606C191.895 423.426 185.627 421.437 179.638 422.171C172.712 423.021 166.84 426.909 161.214 430.753C159.89 431.659 161.143 433.831 162.481 432.917Z" fill="#3F3D56"/>
<path id="Vector_28" d="M444.826 340.056L445.662 348.408C445.662 348.408 440.644 366.784 451.517 366.784C462.39 366.784 454.026 348.408 454.026 348.408L454.863 341.726L444.826 340.056Z" fill="#A0616A"/>
<path id="Vector_29" d="M520.795 312.229L516.957 319.697C516.957 319.697 502.754 332.409 511.886 338.303C521.017 344.197 523.981 324.231 523.981 324.231L528.316 319.072L520.795 312.229Z" fill="#A0616A"/>
<path id="Vector_30" d="M458.208 347.573L469.917 426.921L475.772 483.717C475.772 483.717 480.791 496.246 497.518 485.388L495.009 452.813L493.336 423.58C493.336 423.58 491.664 395.182 489.991 390.17C488.318 385.159 490.827 368.454 490.827 368.454L497.518 340.891L458.208 347.573Z" fill="#2F2E41"/>
<path id="Vector_31" d="M477.445 482.047L470.754 489.564C470.754 489.564 460.717 486.223 458.208 492.905C455.699 499.587 477.445 501.258 477.445 501.258C477.445 501.258 500.028 502.928 500.028 501.258C500.028 499.587 499.422 486.811 496.379 486.1C493.336 485.388 477.445 482.047 477.445 482.047Z" fill="#2F2E41"/>
<path id="Vector_32" d="M489.991 343.397L501.7 426.921L507.555 483.718C507.555 483.718 512.573 496.246 529.301 485.388L526.792 452.814L525.119 423.58C525.119 423.58 523.446 395.182 521.774 390.17C520.101 385.159 522.61 368.454 522.61 368.454L520.937 337.55L489.991 343.397Z" fill="#2F2E41"/>
<path id="Vector_33" d="M509.228 482.047L502.537 489.564C502.537 489.564 492.5 486.223 489.991 492.905C487.482 499.587 509.228 501.258 509.228 501.258C509.228 501.258 531.81 502.928 531.81 501.258C531.81 499.587 531.205 486.811 528.162 486.1C525.119 485.388 509.228 482.047 509.228 482.047Z" fill="#2F2E41"/>
<path id="Vector_34" d="M464.899 211.428C474.6 211.428 482.463 203.575 482.463 193.888C482.463 184.201 474.6 176.348 464.899 176.348C455.199 176.348 447.335 184.201 447.335 193.888C447.335 203.575 455.199 211.428 464.899 211.428Z" fill="#A0616A"/>
<path id="Vector_35" d="M477.863 201.823L485.391 214.352L466.154 222.704L463.645 207.67L477.863 201.823Z" fill="#A0616A"/>
<path id="Vector_36" d="M487.482 213.099C487.482 213.099 469.918 211.428 463.226 222.286L446.718 234.816C445.381 235.83 444.337 237.18 443.691 238.728C443.046 240.276 442.822 241.967 443.042 243.629L457.372 351.749L478.281 350.914L512.573 344.232L522.61 341.726L517.592 297.458C517.592 297.458 511.737 279.918 518.428 268.225L515.083 227.298L491.664 218.11L487.482 213.099Z" fill="#575A89"/>
<path id="Vector_37" d="M448.171 238.156L446.917 236.068C446.917 236.068 445.244 236.068 445.244 239.409C445.244 242.75 442.317 314.998 442.317 314.998L441.48 342.561L457.372 344.232L463.226 292.447L460.717 258.202L448.171 238.156Z" fill="#575A89"/>
<path id="Vector_38" d="M503.373 225.627L515.083 227.298C519.645 232.069 523.58 237.402 526.792 243.168C531.81 252.355 546.865 269.895 543.52 283.259C540.174 296.623 530.138 320.845 530.138 320.845L514.246 314.163C514.246 314.163 526.792 284.93 525.956 282.424C525.119 279.918 515.083 264.884 515.083 264.884L503.373 225.627Z" fill="#575A89"/>
<path id="Vector_39" d="M452.771 184.283C452.771 184.283 438.553 183.448 447.753 174.26C447.753 174.26 455.281 170.919 458.626 172.59C458.626 172.59 463.645 169.249 463.645 170.919C463.645 170.919 481.209 165.908 483.718 183.448C486.227 200.988 482.045 209.34 482.045 209.34L470.336 208.505C470.336 208.505 472.845 194.306 463.645 195.976C463.645 195.976 456.117 198.482 455.281 195.976C454.444 193.471 452.771 184.283 452.771 184.283Z" fill="#2F2E41"/>
<path id="Vector_40" opacity="0.2" d="M459.463 342.979L466.99 292.865L461.972 261.96L463.644 295.575L458.626 342.979H459.463Z" fill="black"/>
</g>
</g>
<defs>
<clipPath id="clip0">
<rect width="544" height="502" fill="white"/>
</clipPath>
</defs>
</svg>
