<?xml version='1.0' encoding='utf-8'?>
<svg xmlns="http://www.w3.org/2000/svg" enable-background="new 0 0 1179.932 1718.316" version="1.1" viewBox="0 0 1179.932 1718.316">
	<path d="m315.74 954.3c0-33.689-16.001-33.283-28.327-77.105-18.29-65.026 12.957-105.72 31.732-155.04 8.768-23.033 27.699-32.183 31.713-42.277 0.739-1.859 2.631-2.884 4.395-3.781 5.183-2.636 8.526-7.148 12.336-11.333 21.82-23.966 21.404-11.83 30.041-22.58 10.723-13.346 8.438-20.803 3.439-31.069-6.1-12.528-16.173 9.463-23.553-0.706-4.466-6.154-8.214-3.474-14.852-0.093-7.794 3.97-19.513 4.343-21.897-5.39-1.262-5.152-6.671-4.826-3.713-9.29 4.18-6.308-6.294-8.351-6.697-22.533-0.181-6.384-6.978 0.738-10.211-6.942-3.414-8.11-13.576-1.186-18.958-7.899-4.761-5.938 3.404-6.992-0.298-11.671-0.276-0.349-0.546-1.11-0.369-1.349 2.526-3.427-0.395-5.79-1.436-8.637-6.449-17.652 9.23-22.676 15.827-36.567 4.137-8.712 13.313-4.8 21.485 0.413 13.818 8.817 22.934-3.228 20.575-11.494-2.032-7.119-0.571-14.861-2.651-21.855-3.132-10.527-1.699-21.214-2.488-31.798-1.32-17.706 23.38-45.626 37.561-56.773 13.161-10.346 32.113-12.776 45.836-19.66 4.109-2.061 8.159-2.18 12.406-0.344 4.46 1.928 9.214 1.103 13.822 0.813 11.712-0.735 10.908 1.654 25.199 1.931 39.576 0.768 61.887 52.882 64.362 55.612 3.818 4.212 5.265 22.02 10.185 30.416 1.705 2.91 1.958 6.315 2.454 9.581 0.751 4.935 4.851 7.134 8.028 10.074 1.146 1.06 7.288-1.935 6.688 4.916-0.306 3.49 0.396 4.123 3.903 3.264 7.695-1.884 14.719-4.855 20.863-10.237 28.213-24.713 36.105-22.103 44.668-35.551 16.41-25.772 1.354 1.967 103.98-108.59 5.323-5.735 29.428-42.825 80.458-86.709 48.476-41.688 109.44-74.442 137.42-128.92 7.4-14.404 18.404-28.147 39.829-42.754 7.284-4.966 11.683-4.241 17.119 2.525 4.861 6.05 13.226-6.032 22.028 8.869 4.302 7.283 7.215-6.852 20.113 0.795 6.467 3.834 9.222-0.772 8.425 5.59-0.214 1.706-2.268 3.991-0.42 4.962 1.766 0.928 2.56-2.071 3.974-3.113 4.901-3.614 3.399-7.248 10.812-3.422 15.593 8.047 3.805 17.529-3.261 34.627-0.844 2.042-2.843 4.415-1.097 6.456 1.528 1.787 3.903 0.011 5.896-0.291 6.33-0.959 7.974 1.707 5.015 6.865-4.845 8.442-12.112 16.752-21.725 17.589-10.657 0.928-15.598 5.54-20.343 6.045-10.185 1.084-19.146 5.74-28.463 9.384-12.804 5.008-15.568 4.342-22.016 11.14-17.835 18.8-32.083 23.604-41.096 32.638-27.228 27.291-35.067 33.727-50.897 59.189-2.268 3.648-5.794 6.205-8.049 9.979-16 26.777-31.044 40.911-48.954 54.835-28.952 22.507-21.227 29.827-46.145 50.596-12.221 10.186-6.934 16.286-37.906 55.362-23.102 29.146-45.807 58.597-66.546 89.511-24.437 36.426-18.626-5.352-18.266 146.26 0.033 13.89 11.753 11.649 26.302 41.108 5.986 12.121 18.854 13.915 32.293 13.19 8.997-0.486 10.549-3.345 29.499-15.616 13.801-8.936 33.013-9.266 41.364-3.851 4.248 2.754 8.161 5.967 11.498 9.731 19.102 21.55 48.668 44.856 50.815 53.265 10.819 42.365 49.477 124.23 57.207 198.28 4.253 40.747 4.04 83.968 10.29 123.54 2.22 14.058 5.555 27.901 7.398 42.018 0.485 3.719 3.231 6.557 5.115 9.688 5.915 9.831 4.509 10.87 10.038 20.006 3.765 6.222 3.543 22.686-1.675 28.53-0.933 1.045-0.969 1.118-0.168 17.123 0.224 4.474-0.217 8.796-2.177 12.922-1.696 3.572-3.706 14.404-5.945 18.91-4.78 9.615 1.719 15.905 5.878 22.335 1.865 2.883 2.592 4.839 18.751 12.432 11.557 5.431 22.302-7.173 64.949-6.385 92.453 1.707 28.811 95.331-31.793 133.48-6.92 4.357 0.517 11.468-5.443 25.517-1.507 3.553-3.652 5.984-7.295 7.191-9.462 3.137-19.121 5.398-29 6.742-63.846 8.687-42.322-12.51-71.825-4.783-13.782 3.61-14.374 4.044-13.946 8.952 1.028 11.789 8.823 17.877 51.971 36.668 4.157 1.81 4.999 1.283 7.485-2.481 6.049-9.157 13.903-15.129 25.629-14.049 11.779 1.084 15.805-0.891 20.233 6.266 10.324 16.688 4.678 33.218-1.906 48.366-5.88 13.528-33.805 8.011-38.086 7.405-1.857-0.263-3.332-1.516-4.595-2.907-7.586-8.36-1.99-16.618-23.503-20.81-10.855-2.115-11.706-0.685-44.694-4.167-16.768-1.77-12.89 4.336-23.866 0.401-9.183-3.292-18.836-3.007-28.349-3.799-7.816-0.651-5.836 18.299-26.602 19.256-6.935 0.32-13.678-1.128-20.458-2.193-5.213-0.819-8.631-4.624-9.907-8.988-3.434-11.745-17.719-12.945-23.143-11.063-36.592 12.696-174.03 59.637-190.53 75.417-1.257 1.201-25.996 10.169-37.805 11.808-9.546 1.324-8.798 19.343-3.187 24.927 2.27 2.258-6.136 11.725 19.299 16.552 2.799 0.531 4.799-0.278 5.766-3.148 2.725-8.088 9.595-16.469 20.383-16.309 14.335 0.212 21.364-1.742 27.752 8.688 12.25 20.002 0.561 49.954-18.017 50.208-13.938 0.19-24.911 1.242-29.355-11.416-2.785-7.935-8.649-9.614-15.71-10.002-115.85-6.362-104.27-6.683-110.11 3.693-7.402 13.162-14.954 11.232-30.884 9.851-16.639-1.442-27.671-30.01-11.31-53.117 7.343-10.37 15.873-7.919 28.956-7.047 31.182 2.08-1.387 37.716 57.866 13.683 3.304-1.34 5.999-3.342 6.816-7.136 1.689-7.846-9.023 1.13-15.349-16.73-4.094-11.559-135.37-3.115-155.77-15.699-7.73-4.769-4.715-11.758 2.005-13.127 11.464-2.336 15.559-0.13 13.756-5.977-3.642-11.806-14.295-24.187 5.558-46.948 12.79-14.664 25.768-12.97 42.187-23.152 7.056-4.376 22.7-0.331 37.028-21.353 11.292-16.567 9.294-6.999 17.604-18.873 2.486-3.552-5.967-2.575-8.141-3.979 1.415-1.287 3.095-0.119 4.638-0.5 2.986-0.737 10.171-4.973 2.501-9.332-14.983-8.515-16.431-18.756-20.035-13.147-1.148 1.787-2.691 1.577-4.129 0.537-16.34-11.812-5.798-16.15-12.965-21.661-10.099-7.764-2.214-14.886-11.138-20.537-2.994-1.896-5.175-5.889-1.774-7.029 6.653-2.23-6.369-11.532 5.185-15.52 3.05-1.053 3.324-4.456 0.954-6.906-7.342-7.588-8.195-7.075-8.93-12.389-0.718-5.19-0.71-10.522-5.062-14.844-9.877-9.808-9.299-16.209-20.86-21.848-27.294-13.313-85.725-69.422-137.07-104.54-15.803-10.81-25.223-24.504-36.696-34.439-15.025-13.011-29.35-38.461-47.692-52.837-10.981-8.607-18.397-19.349-22.663-32.723-16.315-51.148-16.815-67.533-1.446-80.802 21.377-18.457 24.227-39.169 59.478-42.285 50.764-4.487 138.49 31.299 152.99 32.101 13.417 0.741 12.082-4.348 12.082-18.815-0.157 4e-3 -0.317 4e-3 -0.477 4e-3zm183 348.5c0.652 1.621 2.072 2.721 3.314 3.907 5.249 5.009-0.703 6.529 6.604 14.258 29.58 31.294 57.153 70.067 69.909 73.849 12.133 3.597 13.628-10.39 20.331-1.972 19.359 24.312 20.177 36.237 31.638 40.005 3.246 1.067 5.825 1.749 9.039 0.388 23.876-10.11 66.665-26.337 76.551-29.54 52.193-16.911 120.46-24.413 103.99-36.987-11.473-8.759-28.844-30.356-27.663-46.524 0.424-5.8 2.39-11.261 3.072-17.006 1.863-15.703 12.656-19.829 18.344-22.854 23.296-12.39 41.556-4.724 52.603-3.318 9.056 1.153 7.087-2.723 8.984-8.563 1.323-4.075-0.072-7.381-3.262-9.772-10.432-7.821-19.125-17.635-29.489-25.524-9.248-7.039-6.805-16.506-10.492-24.727-0.309-0.688-0.037-1.709 0.149-2.535 1.162-5.179 0.067-10.277-0.622-15.361-1.721-12.693-26.316 16.095-57.088 25.862-30.049 9.537-59.912 19.672-90.177 28.51-17.288 5.049-34.18 11.723-52.151 14.121-77.554 10.35-119.5-15.212-138.32-23.717-5.311-2.4-16.001-2.739-16.295 5.125-1.208 32.319 12.555 41.286 21.034 62.375zm-94.884 62.069c-4.364-0.489-7.619 0.546-10.615 4.128-1.866 2.23-2.583 3.515-0.731 5.826 4.434 5.531-7.96 3.87-2.456 11.866 8.031 11.667 10.284 20.905 26.061 20.949 3.526 0.01 4.269-1.069 3.288-4.571-1.097-3.915-3.078-7.074-6.581-9.388-2.893-1.911-13.595-10.746-11.292-13.365 1.193-1.355 7.215 0.969 9.795 4.856 7.864 11.849 11.623 11.271 12.496 17.45 0.817 5.79 5.628 7.323 9.582 9.784 2.766 1.722 3.501-0.862 9.584-18.187 0.617-1.758 0.236-3.655-0.254-5.448-5.825-21.313-4.738-21.791-10.277-23.024-9.526-2.118-22.174-0.157-28.6-0.876zm15.461-416.22c-5.669 3.082-2.267 7.538 4.946 34.534 1.497 5.604 7.967 3.236 9.156 0.202 2.699-6.884 1.376-7.913 4.554-17.005 2.562-7.331-2.339-8.577-4.868-16.187-1.95-5.867-8.284-4.536-13.788-1.544z"/>
</svg>